<?xml version="1.0" encoding="UTF-8" standalone="no"?>
<!DOCTYPE svg PUBLIC "-//W3C//DTD SVG 1.1//EN"
 "http://www.w3.org/Graphics/SVG/1.1/DTD/svg11.dtd">
<!-- Generated by graphviz version 2.38.0 (20140413.2041)
 -->
<!-- Title: IVTrackControlBase Pages: 1 -->
<svg width="418pt" height="218pt"
 viewBox="0.00 0.00 417.50 218.00" xmlns="http://www.w3.org/2000/svg" xmlns:xlink="http://www.w3.org/1999/xlink">
<g id="graph0" class="graph" transform="scale(1 1) rotate(0) translate(4 214)">
<title>IVTrackControlBase</title>
<polygon fill="white" stroke="none" points="-4,4 -4,-214 413.5,-214 413.5,4 -4,4"/>
<!-- Node1 -->
<g id="node1" class="node"><title>Node1</title>
<polygon fill="#bfbfbf" stroke="black" points="165,-134.5 165,-153.5 273,-153.5 273,-134.5 165,-134.5"/>
<text text-anchor="middle" x="219" y="-141.5" font-family="Helvetica,sans-Serif" font-size="10.00">IVTrackControlBase</text>
</g>
<!-- Node4 -->
<g id="node4" class="node"><title>Node4</title>
<g id="a_node4"><a xlink:href="class_i_v_meter_control.html" target="_top" xlink:title="Vectorial multi&#45;channel capable meter control. ">
<polygon fill="white" stroke="black" points="0,-73 0,-92 146,-92 146,-73 0,-73"/>
<text text-anchor="middle" x="73" y="-80" font-family="Helvetica,sans-Serif" font-size="10.00">IVMeterControl&lt; MAXNC &gt;</text>
</a>
</g>
</g>
<!-- Node1&#45;&gt;Node4 -->
<g id="edge3" class="edge"><title>Node1&#45;&gt;Node4</title>
<path fill="none" stroke="midnightblue" d="M188.65,-130.631C160.285,-119.072 118.689,-102.12 93.8794,-92.0091"/>
<polygon fill="midnightblue" stroke="midnightblue" points="187.5,-133.942 198.082,-134.475 190.142,-127.46 187.5,-133.942"/>
</g>
<!-- Node6 -->
<g id="node6" class="node"><title>Node6</title>
<g id="a_node6"><a xlink:href="class_i_v_multi_slider_control.html" target="_top" xlink:title="A vectorial multi&#45;slider control. ">
<polygon fill="white" stroke="black" points="164,-67.5 164,-97.5 274,-97.5 274,-67.5 164,-67.5"/>
<text text-anchor="start" x="172" y="-85.5" font-family="Helvetica,sans-Serif" font-size="10.00">IVMultiSliderControl</text>
<text text-anchor="middle" x="219" y="-74.5" font-family="Helvetica,sans-Serif" font-size="10.00">&lt; MAXNC &gt;</text>
</a>
</g>
</g>
<!-- Node1&#45;&gt;Node6 -->
<g id="edge5" class="edge"><title>Node1&#45;&gt;Node6</title>
<path fill="none" stroke="midnightblue" d="M219,-124.235C219,-115.586 219,-105.497 219,-97.523"/>
<polygon fill="midnightblue" stroke="midnightblue" points="215.5,-124.475 219,-134.475 222.5,-124.475 215.5,-124.475"/>
</g>
<!-- Node8 -->
<g id="node8" class="node"><title>Node8</title>
<g id="a_node8"><a xlink:href="class_i_v_range_slider_control.html" target="_top" xlink:title="A vector range slider control, with two handles. ">
<polygon fill="white" stroke="black" points="292.5,-73 292.5,-92 409.5,-92 409.5,-73 292.5,-73"/>
<text text-anchor="middle" x="351" y="-80" font-family="Helvetica,sans-Serif" font-size="10.00">IVRangeSliderControl</text>
</a>
</g>
</g>
<!-- Node1&#45;&gt;Node8 -->
<g id="edge7" class="edge"><title>Node1&#45;&gt;Node8</title>
<path fill="none" stroke="midnightblue" d="M247.115,-130.327C272.74,-118.776 309.888,-102.032 332.123,-92.0091"/>
<polygon fill="midnightblue" stroke="midnightblue" points="245.591,-127.175 237.912,-134.475 248.467,-133.556 245.591,-127.175"/>
</g>
<!-- Node2 -->
<g id="node2" class="node"><title>Node2</title>
<g id="a_node2"><a xlink:href="class_i_control.html" target="_top" xlink:title="The lowest level base class of an IGraphics control. ">
<polygon fill="white" stroke="black" points="151.5,-190.5 151.5,-209.5 204.5,-209.5 204.5,-190.5 151.5,-190.5"/>
<text text-anchor="middle" x="178" y="-197.5" font-family="Helvetica,sans-Serif" font-size="10.00">IControl</text>
</a>
</g>
</g>
<!-- Node2&#45;&gt;Node1 -->
<g id="edge1" class="edge"><title>Node2&#45;&gt;Node1</title>
<path fill="none" stroke="midnightblue" d="M191.017,-181.855C198.117,-172.505 206.604,-161.327 212.356,-153.751"/>
<polygon fill="midnightblue" stroke="midnightblue" points="188.03,-180.002 184.77,-190.083 193.605,-184.235 188.03,-180.002"/>
</g>
<!-- Node3 -->
<g id="node3" class="node"><title>Node3</title>
<g id="a_node3"><a xlink:href="class_i_vector_base.html" target="_top" xlink:title="A base interface to be combined with IControl for vectorial controls &quot;IVControls&quot;, in order for them to share a common style If you need more flexibility, you&#39;re on your own! ">
<polygon fill="white" stroke="black" points="223,-190.5 223,-209.5 297,-209.5 297,-190.5 223,-190.5"/>
<text text-anchor="middle" x="260" y="-197.5" font-family="Helvetica,sans-Serif" font-size="10.00">IVectorBase</text>
</a>
</g>
</g>
<!-- Node3&#45;&gt;Node1 -->
<g id="edge2" class="edge"><title>Node3&#45;&gt;Node1</title>
<path fill="none" stroke="midnightblue" d="M246.983,-181.855C239.883,-172.505 231.396,-161.327 225.644,-153.751"/>
<polygon fill="midnightblue" stroke="midnightblue" points="244.395,-184.235 253.23,-190.083 249.97,-180.002 244.395,-184.235"/>
</g>
<!-- Node5 -->
<g id="node5" class="node"><title>Node5</title>
<g id="a_node5"><a xlink:href="class_i_v_l_e_d_meter_control.html" target="_top" xlink:title="IVLEDMeterControl\&lt;\l MAXNC \&gt;">
<polygon fill="white" stroke="black" points="15.5,-0.5 15.5,-30.5 130.5,-30.5 130.5,-0.5 15.5,-0.5"/>
<text text-anchor="start" x="23.5" y="-18.5" font-family="Helvetica,sans-Serif" font-size="10.00">IVLEDMeterControl&lt;</text>
<text text-anchor="middle" x="73" y="-7.5" font-family="Helvetica,sans-Serif" font-size="10.00"> MAXNC &gt;</text>
</a>
</g>
</g>
<!-- Node4&#45;&gt;Node5 -->
<g id="edge4" class="edge"><title>Node4&#45;&gt;Node5</title>
<path fill="none" stroke="midnightblue" d="M73,-62.4107C73,-52.222 73,-39.901 73,-30.589"/>
<polygon fill="midnightblue" stroke="midnightblue" points="69.5001,-62.7338 73,-72.7338 76.5001,-62.7338 69.5001,-62.7338"/>
</g>
<!-- Node7 -->
<g id="node7" class="node"><title>Node7</title>
<g id="a_node7"><a xlink:href="class_i_v_multi_toggle_control.html" target="_top" xlink:title="A vectorial multi&#45;toggle control, could be used for a trigger in a step sequencer or tarnce gate...">
<polygon fill="white" stroke="black" points="162.5,-0.5 162.5,-30.5 275.5,-30.5 275.5,-0.5 162.5,-0.5"/>
<text text-anchor="start" x="170.5" y="-18.5" font-family="Helvetica,sans-Serif" font-size="10.00">IVMultiToggleControl</text>
<text text-anchor="middle" x="219" y="-7.5" font-family="Helvetica,sans-Serif" font-size="10.00">&lt; MAXNC &gt;</text>
</a>
</g>
</g>
<!-- Node6&#45;&gt;Node7 -->
<g id="edge6" class="edge"><title>Node6&#45;&gt;Node7</title>
<path fill="none" stroke="midnightblue" d="M219,-57.1081C219,-48.1539 219,-38.3227 219,-30.5765"/>
<polygon fill="midnightblue" stroke="midnightblue" points="215.5,-57.3959 219,-67.396 222.5,-57.396 215.5,-57.3959"/>
</g>
</g>
</svg>
