<?xml version="1.0" encoding="UTF-8" standalone="no"?>
<!DOCTYPE svg PUBLIC "-//W3C//DTD SVG 1.1//EN"
 "http://www.w3.org/Graphics/SVG/1.1/DTD/svg11.dtd">
<!-- Generated by graphviz version 2.38.0 (20140413.2041)
 -->
<!-- Title: IPlugVST3Controller Pages: 1 -->
<svg width="613pt" height="192pt"
 viewBox="0.00 0.00 613.00 192.00" xmlns="http://www.w3.org/2000/svg" xmlns:xlink="http://www.w3.org/1999/xlink">
<g id="graph0" class="graph" transform="scale(1 1) rotate(0) translate(4 188)">
<title>IPlugVST3Controller</title>
<polygon fill="white" stroke="none" points="-4,4 -4,-188 609,-188 609,4 -4,4"/>
<!-- Node1 -->
<g id="node1" class="node"><title>Node1</title>
<polygon fill="#bfbfbf" stroke="black" points="495,-82.5 495,-101.5 605,-101.5 605,-82.5 495,-82.5"/>
<text text-anchor="middle" x="550" y="-89.5" font-family="Helvetica,sans-Serif" font-size="10.00">IPlugVST3Controller</text>
</g>
<!-- Node2 -->
<g id="node2" class="node"><title>Node2</title>
<polygon fill="white" stroke="#bfbfbf" points="286,-164.5 286,-183.5 459,-183.5 459,-164.5 286,-164.5"/>
<text text-anchor="middle" x="372.5" y="-171.5" font-family="Helvetica,sans-Serif" font-size="10.00">Steinberg::Vst::EditControllerEx1</text>
</g>
<!-- Node2&#45;&gt;Node1 -->
<g id="edge1" class="edge"><title>Node2&#45;&gt;Node1</title>
<path fill="none" stroke="midnightblue" d="M440.894,-161.669C447.121,-159.743 453.246,-157.533 459,-155 490.421,-141.168 522.151,-115.641 538.221,-101.703"/>
<polygon fill="midnightblue" stroke="midnightblue" points="439.724,-158.363 431.064,-164.467 441.641,-165.096 439.724,-158.363"/>
</g>
<!-- Node3 -->
<g id="node3" class="node"><title>Node3</title>
<polygon fill="white" stroke="#bfbfbf" points="296.5,-126.5 296.5,-145.5 448.5,-145.5 448.5,-126.5 296.5,-126.5"/>
<text text-anchor="middle" x="372.5" y="-133.5" font-family="Helvetica,sans-Serif" font-size="10.00">Steinberg::Vst::IMidiMapping</text>
</g>
<!-- Node3&#45;&gt;Node1 -->
<g id="edge2" class="edge"><title>Node3&#45;&gt;Node1</title>
<path fill="none" stroke="midnightblue" d="M428.448,-124.235C438.628,-121.929 449.153,-119.46 459,-117 478.037,-112.244 499.184,-106.399 516.194,-101.557"/>
<polygon fill="midnightblue" stroke="midnightblue" points="427.415,-120.879 418.421,-126.48 428.945,-127.71 427.415,-120.879"/>
</g>
<!-- Node4 -->
<g id="node4" class="node"><title>Node4</title>
<polygon fill="white" stroke="#bfbfbf" points="289,-77 289,-107 456,-107 456,-77 289,-77"/>
<text text-anchor="start" x="297" y="-95" font-family="Helvetica,sans-Serif" font-size="10.00">Steinberg::Vst::ChannelContext</text>
<text text-anchor="middle" x="372.5" y="-84" font-family="Helvetica,sans-Serif" font-size="10.00">::IInfoListener</text>
</g>
<!-- Node4&#45;&gt;Node1 -->
<g id="edge3" class="edge"><title>Node4&#45;&gt;Node1</title>
<path fill="none" stroke="midnightblue" d="M466.298,-92C476.064,-92 485.747,-92 494.86,-92"/>
<polygon fill="midnightblue" stroke="midnightblue" points="466.111,-88.5001 456.111,-92 466.111,-95.5001 466.111,-88.5001"/>
</g>
<!-- Node5 -->
<g id="node5" class="node"><title>Node5</title>
<g id="a_node5"><a xlink:href="class_i_plug_a_p_i_base.html" target="_top" xlink:title="The base class of an IPlug plug&#45;in, which interacts with the different plug&#45;in APIs. ">
<polygon fill="white" stroke="black" points="333.5,-38.5 333.5,-57.5 411.5,-57.5 411.5,-38.5 333.5,-38.5"/>
<text text-anchor="middle" x="372.5" y="-45.5" font-family="Helvetica,sans-Serif" font-size="10.00">IPlugAPIBase</text>
</a>
</g>
</g>
<!-- Node5&#45;&gt;Node1 -->
<g id="edge4" class="edge"><title>Node5&#45;&gt;Node1</title>
<path fill="none" stroke="midnightblue" d="M421.833,-59.0319C433.983,-61.8806 446.984,-64.9933 459,-68 477.197,-72.5535 497.382,-77.9081 514.017,-82.4029"/>
<polygon fill="midnightblue" stroke="midnightblue" points="422.4,-55.5704 411.866,-56.7093 420.811,-62.3877 422.4,-55.5704"/>
</g>
<!-- Node6 -->
<g id="node6" class="node"><title>Node6</title>
<g id="a_node6"><a xlink:href="class_i_plugin_base.html" target="_top" xlink:title="Base class that contains plug&#45;in info and state manipulation methods. ">
<polygon fill="white" stroke="black" points="179,-38.5 179,-57.5 250,-57.5 250,-38.5 179,-38.5"/>
<text text-anchor="middle" x="214.5" y="-45.5" font-family="Helvetica,sans-Serif" font-size="10.00">IPluginBase</text>
</a>
</g>
</g>
<!-- Node6&#45;&gt;Node5 -->
<g id="edge5" class="edge"><title>Node6&#45;&gt;Node5</title>
<path fill="none" stroke="midnightblue" d="M260.369,-48C283.484,-48 311.368,-48 333.422,-48"/>
<polygon fill="midnightblue" stroke="midnightblue" points="260.121,-44.5001 250.121,-48 260.121,-51.5001 260.121,-44.5001"/>
</g>
<!-- Node7 -->
<g id="node7" class="node"><title>Node7</title>
<polygon fill="white" stroke="#bfbfbf" points="0,-38.5 0,-57.5 143,-57.5 143,-38.5 0,-38.5"/>
<text text-anchor="middle" x="71.5" y="-45.5" font-family="Helvetica,sans-Serif" font-size="10.00">EDITOR_DELEGATE_CLASS</text>
</g>
<!-- Node7&#45;&gt;Node6 -->
<g id="edge6" class="edge"><title>Node7&#45;&gt;Node6</title>
<path fill="none" stroke="midnightblue" d="M153.504,-48C162.384,-48 171.036,-48 178.881,-48"/>
<polygon fill="midnightblue" stroke="midnightblue" points="153.413,-44.5001 143.413,-48 153.413,-51.5001 153.413,-44.5001"/>
</g>
<!-- Node8 -->
<g id="node8" class="node"><title>Node8</title>
<g id="a_node8"><a xlink:href="class_i_plug_v_s_t3_controller_base.html" target="_top" xlink:title="Shared VST3 controller code. ">
<polygon fill="white" stroke="black" points="305.5,-0.5 305.5,-19.5 439.5,-19.5 439.5,-0.5 305.5,-0.5"/>
<text text-anchor="middle" x="372.5" y="-7.5" font-family="Helvetica,sans-Serif" font-size="10.00">IPlugVST3ControllerBase</text>
</a>
</g>
</g>
<!-- Node8&#45;&gt;Node1 -->
<g id="edge7" class="edge"><title>Node8&#45;&gt;Node1</title>
<path fill="none" stroke="midnightblue" d="M440.894,-22.3307C447.121,-24.2566 453.246,-26.467 459,-29 490.421,-42.8324 522.151,-68.3592 538.221,-82.2967"/>
<polygon fill="midnightblue" stroke="midnightblue" points="441.641,-18.9042 431.064,-19.5329 439.724,-25.6368 441.641,-18.9042"/>
</g>
</g>
</svg>
