<?xml version="1.0" encoding="UTF-8" standalone="no"?>
<!DOCTYPE svg PUBLIC "-//W3C//DTD SVG 1.1//EN"
 "http://www.w3.org/Graphics/SVG/1.1/DTD/svg11.dtd">
<!-- Generated by graphviz version 2.38.0 (20140413.2041)
 -->
<!-- Title: ITextControl Pages: 1 -->
<svg width="357pt" height="332pt"
 viewBox="0.00 0.00 357.00 332.00" xmlns="http://www.w3.org/2000/svg" xmlns:xlink="http://www.w3.org/1999/xlink">
<g id="graph0" class="graph" transform="scale(1 1) rotate(0) translate(4 328)">
<title>ITextControl</title>
<polygon fill="white" stroke="none" points="-4,4 -4,-328 353,-328 353,4 -4,4"/>
<!-- Node1 -->
<g id="node1" class="node"><title>Node1</title>
<polygon fill="#bfbfbf" stroke="black" points="89,-152.5 89,-171.5 161,-171.5 161,-152.5 89,-152.5"/>
<text text-anchor="middle" x="125" y="-159.5" font-family="Helvetica,sans-Serif" font-size="10.00">ITextControl</text>
</g>
<!-- Node3 -->
<g id="node3" class="node"><title>Node3</title>
<g id="a_node3"><a xlink:href="class_i_b_text_control.html" target="_top" xlink:title="A control to display text using a monospace bitmap font. ">
<polygon fill="white" stroke="black" points="233.5,-304.5 233.5,-323.5 312.5,-323.5 312.5,-304.5 233.5,-304.5"/>
<text text-anchor="middle" x="273" y="-311.5" font-family="Helvetica,sans-Serif" font-size="10.00">IBTextControl</text>
</a>
</g>
</g>
<!-- Node1&#45;&gt;Node3 -->
<g id="edge2" class="edge"><title>Node1&#45;&gt;Node3</title>
<path fill="none" stroke="midnightblue" d="M130.997,-181.66C139.479,-210.933 159.538,-265.668 197,-295 207.364,-303.115 220.784,-307.802 233.402,-310.495"/>
<polygon fill="midnightblue" stroke="midnightblue" points="134.313,-180.517 128.301,-171.794 127.561,-182.363 134.313,-180.517"/>
</g>
<!-- Node4 -->
<g id="node4" class="node"><title>Node4</title>
<g id="a_node4"><a xlink:href="class_i_caption_control.html" target="_top" xlink:title="A control to display the textual representation of a parameter. ">
<polygon fill="white" stroke="black" points="228,-266.5 228,-285.5 318,-285.5 318,-266.5 228,-266.5"/>
<text text-anchor="middle" x="273" y="-273.5" font-family="Helvetica,sans-Serif" font-size="10.00">ICaptionControl</text>
</a>
</g>
</g>
<!-- Node1&#45;&gt;Node4 -->
<g id="edge3" class="edge"><title>Node1&#45;&gt;Node4</title>
<path fill="none" stroke="midnightblue" d="M134.958,-180.687C146.334,-202.384 168.022,-237.659 197,-257 206.161,-263.115 217.148,-267.262 227.852,-270.074"/>
<polygon fill="midnightblue" stroke="midnightblue" points="137.964,-178.875 130.341,-171.517 131.712,-182.023 137.964,-178.875"/>
</g>
<!-- Node5 -->
<g id="node5" class="node"><title>Node5</title>
<g id="a_node5"><a xlink:href="class_i_editable_text_control.html" target="_top" xlink:title="A basic control to display some editable text. ">
<polygon fill="white" stroke="black" points="218,-228.5 218,-247.5 328,-247.5 328,-228.5 218,-228.5"/>
<text text-anchor="middle" x="273" y="-235.5" font-family="Helvetica,sans-Serif" font-size="10.00">IEditableTextControl</text>
</a>
</g>
</g>
<!-- Node1&#45;&gt;Node5 -->
<g id="edge4" class="edge"><title>Node1&#45;&gt;Node5</title>
<path fill="none" stroke="midnightblue" d="M142.689,-178.892C156.225,-191.673 176.379,-208.725 197,-219 204.694,-222.834 213.229,-225.939 221.703,-228.439"/>
<polygon fill="midnightblue" stroke="midnightblue" points="144.782,-176.046 135.172,-171.585 139.903,-181.065 144.782,-176.046"/>
</g>
<!-- Node6 -->
<g id="node6" class="node"><title>Node6</title>
<g id="a_node6"><a xlink:href="class_i_r_t_text_control.html" target="_top" xlink:title="A control to display some text in the UI, driven by values in the RT audio thread. ">
<polygon fill="white" stroke="black" points="197,-190.5 197,-209.5 349,-209.5 349,-190.5 197,-190.5"/>
<text text-anchor="middle" x="273" y="-197.5" font-family="Helvetica,sans-Serif" font-size="10.00">IRTTextControl&lt; MAXNC, T &gt;</text>
</a>
</g>
</g>
<!-- Node1&#45;&gt;Node6 -->
<g id="edge5" class="edge"><title>Node1&#45;&gt;Node6</title>
<path fill="none" stroke="midnightblue" d="M170.941,-174.124C179.584,-176.428 188.569,-178.804 197,-181 208.959,-184.115 222.008,-187.445 233.82,-190.433"/>
<polygon fill="midnightblue" stroke="midnightblue" points="171.57,-170.669 161.005,-171.467 169.762,-177.431 171.57,-170.669"/>
</g>
<!-- Node7 -->
<g id="node7" class="node"><title>Node7</title>
<g id="a_node7"><a xlink:href="class_i_text_toggle_control.html" target="_top" xlink:title="A control to toggle between two text strings on click. ">
<polygon fill="white" stroke="black" points="222,-152.5 222,-171.5 324,-171.5 324,-152.5 222,-152.5"/>
<text text-anchor="middle" x="273" y="-159.5" font-family="Helvetica,sans-Serif" font-size="10.00">ITextToggleControl</text>
</a>
</g>
</g>
<!-- Node1&#45;&gt;Node7 -->
<g id="edge6" class="edge"><title>Node1&#45;&gt;Node7</title>
<path fill="none" stroke="midnightblue" d="M171.498,-162C187.462,-162 205.482,-162 221.809,-162"/>
<polygon fill="midnightblue" stroke="midnightblue" points="171.343,-158.5 161.343,-162 171.342,-165.5 171.343,-158.5"/>
</g>
<!-- Node8 -->
<g id="node8" class="node"><title>Node8</title>
<g id="a_node8"><a xlink:href="class_i_u_r_l_control.html" target="_top" xlink:title="A control to show a clickable URL, that changes colour after clicking. ">
<polygon fill="white" stroke="black" points="237,-114.5 237,-133.5 309,-133.5 309,-114.5 237,-114.5"/>
<text text-anchor="middle" x="273" y="-121.5" font-family="Helvetica,sans-Serif" font-size="10.00">IURLControl</text>
</a>
</g>
</g>
<!-- Node1&#45;&gt;Node8 -->
<g id="edge7" class="edge"><title>Node1&#45;&gt;Node8</title>
<path fill="none" stroke="midnightblue" d="M170.941,-149.876C179.584,-147.572 188.569,-145.196 197,-143 209.998,-139.614 224.286,-135.975 236.872,-132.796"/>
<polygon fill="midnightblue" stroke="midnightblue" points="169.762,-146.569 161.005,-152.533 171.57,-153.331 169.762,-146.569"/>
</g>
<!-- Node9 -->
<g id="node9" class="node"><title>Node9</title>
<g id="a_node9"><a xlink:href="class_i_v_label_control.html" target="_top" xlink:title="A vector label control that can display text with a shadow. ">
<polygon fill="white" stroke="black" points="230,-76.5 230,-95.5 316,-95.5 316,-76.5 230,-76.5"/>
<text text-anchor="middle" x="273" y="-83.5" font-family="Helvetica,sans-Serif" font-size="10.00">IVLabelControl</text>
</a>
</g>
</g>
<!-- Node1&#45;&gt;Node9 -->
<g id="edge8" class="edge"><title>Node1&#45;&gt;Node9</title>
<path fill="none" stroke="midnightblue" d="M142.689,-145.108C156.225,-132.327 176.379,-115.275 197,-105 207.219,-99.9079 218.92,-96.1027 229.993,-93.2911"/>
<polygon fill="midnightblue" stroke="midnightblue" points="139.903,-142.935 135.172,-152.415 144.782,-147.954 139.903,-142.935"/>
</g>
<!-- Node10 -->
<g id="node10" class="node"><title>Node10</title>
<g id="a_node10"><a xlink:href="class_place_holder.html" target="_top" xlink:title="A control to use as a placeholder during development. ">
<polygon fill="white" stroke="black" points="236,-38.5 236,-57.5 310,-57.5 310,-38.5 236,-38.5"/>
<text text-anchor="middle" x="273" y="-45.5" font-family="Helvetica,sans-Serif" font-size="10.00">PlaceHolder</text>
</a>
</g>
</g>
<!-- Node1&#45;&gt;Node10 -->
<g id="edge9" class="edge"><title>Node1&#45;&gt;Node10</title>
<path fill="none" stroke="midnightblue" d="M134.958,-143.313C146.334,-121.616 168.022,-86.3412 197,-67 208.507,-59.3194 222.896,-54.7435 235.984,-52.0174"/>
<polygon fill="midnightblue" stroke="midnightblue" points="131.712,-141.977 130.341,-152.483 137.964,-145.125 131.712,-141.977"/>
</g>
<!-- Node11 -->
<g id="node11" class="node"><title>Node11</title>
<g id="a_node11"><a xlink:href="class_test_gestures_control.html" target="_top" xlink:title="Control to test multi gesture recognizers. ">
<polygon fill="white" stroke="black" points="216.5,-0.5 216.5,-19.5 329.5,-19.5 329.5,-0.5 216.5,-0.5"/>
<text text-anchor="middle" x="273" y="-7.5" font-family="Helvetica,sans-Serif" font-size="10.00">TestGesturesControl</text>
</a>
</g>
</g>
<!-- Node1&#45;&gt;Node11 -->
<g id="edge10" class="edge"><title>Node1&#45;&gt;Node11</title>
<path fill="none" stroke="midnightblue" d="M130.997,-142.34C139.479,-113.067 159.538,-58.3322 197,-29 202.711,-24.5283 209.35,-21.0978 216.271,-18.468"/>
<polygon fill="midnightblue" stroke="midnightblue" points="127.561,-141.637 128.301,-152.206 134.313,-143.483 127.561,-141.637"/>
</g>
<!-- Node2 -->
<g id="node2" class="node"><title>Node2</title>
<g id="a_node2"><a xlink:href="class_i_control.html" target="_top" xlink:title="The lowest level base class of an IGraphics control. ">
<polygon fill="white" stroke="black" points="0,-152.5 0,-171.5 53,-171.5 53,-152.5 0,-152.5"/>
<text text-anchor="middle" x="26.5" y="-159.5" font-family="Helvetica,sans-Serif" font-size="10.00">IControl</text>
</a>
</g>
</g>
<!-- Node2&#45;&gt;Node1 -->
<g id="edge1" class="edge"><title>Node2&#45;&gt;Node1</title>
<path fill="none" stroke="midnightblue" d="M63.3032,-162C71.6426,-162 80.5145,-162 88.8264,-162"/>
<polygon fill="midnightblue" stroke="midnightblue" points="63.1069,-158.5 53.1069,-162 63.1068,-165.5 63.1069,-158.5"/>
</g>
</g>
</svg>
