<?xml version="1.0" encoding="UTF-8" standalone="no"?>
<!DOCTYPE svg PUBLIC "-//W3C//DTD SVG 1.1//EN"
 "http://www.w3.org/Graphics/SVG/1.1/DTD/svg11.dtd">
<!-- Generated by graphviz version 2.38.0 (20140413.2041)
 -->
<!-- Title: IPlugVST3 Pages: 1 -->
<svg width="585pt" height="230pt"
 viewBox="0.00 0.00 585.00 230.00" xmlns="http://www.w3.org/2000/svg" xmlns:xlink="http://www.w3.org/1999/xlink">
<g id="graph0" class="graph" transform="scale(1 1) rotate(0) translate(4 226)">
<title>IPlugVST3</title>
<polygon fill="white" stroke="none" points="-4,4 -4,-226 581,-226 581,4 -4,4"/>
<!-- Node1 -->
<g id="node1" class="node"><title>Node1</title>
<polygon fill="#bfbfbf" stroke="black" points="513,-104.5 513,-123.5 577,-123.5 577,-104.5 513,-104.5"/>
<text text-anchor="middle" x="545" y="-111.5" font-family="Helvetica,sans-Serif" font-size="10.00">IPlugVST3</text>
</g>
<!-- Node2 -->
<g id="node2" class="node"><title>Node2</title>
<g id="a_node2"><a xlink:href="class_i_plug_a_p_i_base.html" target="_top" xlink:title="The base class of an IPlug plug&#45;in, which interacts with the different plug&#45;in APIs. ">
<polygon fill="white" stroke="black" points="350,-202.5 350,-221.5 428,-221.5 428,-202.5 350,-202.5"/>
<text text-anchor="middle" x="389" y="-209.5" font-family="Helvetica,sans-Serif" font-size="10.00">IPlugAPIBase</text>
</a>
</g>
</g>
<!-- Node2&#45;&gt;Node1 -->
<g id="edge1" class="edge"><title>Node2&#45;&gt;Node1</title>
<path fill="none" stroke="midnightblue" d="M438.317,-207.214C451.524,-204.41 465.385,-199.982 477,-193 506.286,-175.397 529.007,-140.407 538.776,-123.535"/>
<polygon fill="midnightblue" stroke="midnightblue" points="437.585,-203.79 428.393,-209.058 438.864,-210.673 437.585,-203.79"/>
</g>
<!-- Node3 -->
<g id="node3" class="node"><title>Node3</title>
<g id="a_node3"><a xlink:href="class_i_plugin_base.html" target="_top" xlink:title="Base class that contains plug&#45;in info and state manipulation methods. ">
<polygon fill="white" stroke="black" points="186.5,-202.5 186.5,-221.5 257.5,-221.5 257.5,-202.5 186.5,-202.5"/>
<text text-anchor="middle" x="222" y="-209.5" font-family="Helvetica,sans-Serif" font-size="10.00">IPluginBase</text>
</a>
</g>
</g>
<!-- Node3&#45;&gt;Node2 -->
<g id="edge2" class="edge"><title>Node3&#45;&gt;Node2</title>
<path fill="none" stroke="midnightblue" d="M267.796,-212C293.429,-212 325.248,-212 349.709,-212"/>
<polygon fill="midnightblue" stroke="midnightblue" points="267.589,-208.5 257.589,-212 267.589,-215.5 267.589,-208.5"/>
</g>
<!-- Node4 -->
<g id="node4" class="node"><title>Node4</title>
<polygon fill="white" stroke="#bfbfbf" points="0,-202.5 0,-221.5 143,-221.5 143,-202.5 0,-202.5"/>
<text text-anchor="middle" x="71.5" y="-209.5" font-family="Helvetica,sans-Serif" font-size="10.00">EDITOR_DELEGATE_CLASS</text>
</g>
<!-- Node4&#45;&gt;Node3 -->
<g id="edge3" class="edge"><title>Node4&#45;&gt;Node3</title>
<path fill="none" stroke="midnightblue" d="M153.426,-212C164.952,-212 176.26,-212 186.23,-212"/>
<polygon fill="midnightblue" stroke="midnightblue" points="153.271,-208.5 143.271,-212 153.271,-215.5 153.271,-208.5"/>
</g>
<!-- Node5 -->
<g id="node5" class="node"><title>Node5</title>
<g id="a_node5"><a xlink:href="class_i_plug_v_s_t3_processor_base.html" target="_top" xlink:title="Shared VST3 processor code. ">
<polygon fill="white" stroke="black" points="321.5,-164.5 321.5,-183.5 456.5,-183.5 456.5,-164.5 321.5,-164.5"/>
<text text-anchor="middle" x="389" y="-171.5" font-family="Helvetica,sans-Serif" font-size="10.00">IPlugVST3ProcessorBase</text>
</a>
</g>
</g>
<!-- Node5&#45;&gt;Node1 -->
<g id="edge4" class="edge"><title>Node5&#45;&gt;Node1</title>
<path fill="none" stroke="midnightblue" d="M457.028,-161.755C463.871,-159.797 470.639,-157.556 477,-155 497.246,-146.865 518.356,-132.883 531.342,-123.541"/>
<polygon fill="midnightblue" stroke="midnightblue" points="455.752,-158.472 446.988,-164.425 457.551,-165.237 455.752,-158.472"/>
</g>
<!-- Node6 -->
<g id="node6" class="node"><title>Node6</title>
<g id="a_node6"><a xlink:href="class_i_plug_processor.html" target="_top" xlink:title="The base class for IPlug Audio Processing. ">
<polygon fill="white" stroke="black" points="179,-164.5 179,-183.5 265,-183.5 265,-164.5 179,-164.5"/>
<text text-anchor="middle" x="222" y="-171.5" font-family="Helvetica,sans-Serif" font-size="10.00">IPlugProcessor</text>
</a>
</g>
</g>
<!-- Node6&#45;&gt;Node5 -->
<g id="edge5" class="edge"><title>Node6&#45;&gt;Node5</title>
<path fill="none" stroke="midnightblue" d="M275.398,-174C289.987,-174 306.032,-174 321.324,-174"/>
<polygon fill="midnightblue" stroke="midnightblue" points="275.063,-170.5 265.063,-174 275.063,-177.5 275.063,-170.5"/>
</g>
<!-- Node7 -->
<g id="node7" class="node"><title>Node7</title>
<g id="a_node7"><a xlink:href="class_i_plug_v_s_t3_controller_base.html" target="_top" xlink:title="Shared VST3 controller code. ">
<polygon fill="white" stroke="black" points="322,-126.5 322,-145.5 456,-145.5 456,-126.5 322,-126.5"/>
<text text-anchor="middle" x="389" y="-133.5" font-family="Helvetica,sans-Serif" font-size="10.00">IPlugVST3ControllerBase</text>
</a>
</g>
</g>
<!-- Node7&#45;&gt;Node1 -->
<g id="edge6" class="edge"><title>Node7&#45;&gt;Node1</title>
<path fill="none" stroke="midnightblue" d="M466.434,-125.081C482.916,-122.726 499.433,-120.367 512.963,-118.434"/>
<polygon fill="midnightblue" stroke="midnightblue" points="465.608,-121.663 456.204,-126.542 466.598,-128.593 465.608,-121.663"/>
</g>
<!-- Node8 -->
<g id="node8" class="node"><title>Node8</title>
<polygon fill="white" stroke="#bfbfbf" points="301,-77 301,-107 477,-107 477,-77 301,-77"/>
<text text-anchor="start" x="309" y="-95" font-family="Helvetica,sans-Serif" font-size="10.00">Steinberg::Vst::SingleComponent</text>
<text text-anchor="middle" x="389" y="-84" font-family="Helvetica,sans-Serif" font-size="10.00">Effect</text>
</g>
<!-- Node8&#45;&gt;Node1 -->
<g id="edge7" class="edge"><title>Node8&#45;&gt;Node1</title>
<path fill="none" stroke="midnightblue" d="M487.305,-105.901C496.358,-107.194 505.008,-108.43 512.704,-109.529"/>
<polygon fill="midnightblue" stroke="midnightblue" points="487.744,-102.428 477.349,-104.478 486.754,-109.358 487.744,-102.428"/>
</g>
<!-- Node9 -->
<g id="node9" class="node"><title>Node9</title>
<polygon fill="white" stroke="#bfbfbf" points="350,-38.5 350,-57.5 428,-57.5 428,-38.5 350,-38.5"/>
<text text-anchor="middle" x="389" y="-45.5" font-family="Helvetica,sans-Serif" font-size="10.00">IMidiMapping</text>
</g>
<!-- Node9&#45;&gt;Node1 -->
<g id="edge8" class="edge"><title>Node9&#45;&gt;Node1</title>
<path fill="none" stroke="midnightblue" d="M438.388,-55.0194C451.261,-57.8333 464.935,-61.7076 477,-67 498.6,-76.4745 520.359,-93.4239 532.989,-104.17"/>
<polygon fill="midnightblue" stroke="midnightblue" points="438.775,-51.5272 428.281,-52.9833 437.392,-58.3893 438.775,-51.5272"/>
</g>
<!-- Node10 -->
<g id="node10" class="node"><title>Node10</title>
<polygon fill="white" stroke="#bfbfbf" points="352,-0.5 352,-19.5 426,-19.5 426,-0.5 352,-0.5"/>
<text text-anchor="middle" x="389" y="-7.5" font-family="Helvetica,sans-Serif" font-size="10.00">IInfoListener</text>
</g>
<!-- Node10&#45;&gt;Node1 -->
<g id="edge9" class="edge"><title>Node10&#45;&gt;Node1</title>
<path fill="none" stroke="midnightblue" d="M436.28,-14.0644C450.144,-16.8257 464.872,-21.4109 477,-29 507.583,-48.1374 529.979,-86.3812 539.266,-104.307"/>
<polygon fill="midnightblue" stroke="midnightblue" points="436.837,-10.6088 426.388,-12.3592 435.648,-17.5071 436.837,-10.6088"/>
</g>
</g>
</svg>
