<?xml version="1.0" encoding="UTF-8" standalone="no"?>
<!DOCTYPE svg PUBLIC "-//W3C//DTD SVG 1.1//EN"
 "http://www.w3.org/Graphics/SVG/1.1/DTD/svg11.dtd">
<!-- Generated by graphviz version 2.38.0 (20140413.2041)
 -->
<!-- Title: IVMultiToggleControl&lt; MAXNC &gt; Pages: 1 -->
<svg width="154pt" height="218pt"
 viewBox="0.00 0.00 153.50 218.00" xmlns="http://www.w3.org/2000/svg" xmlns:xlink="http://www.w3.org/1999/xlink">
<g id="graph0" class="graph" transform="scale(1 1) rotate(0) translate(4 214)">
<title>IVMultiToggleControl&lt; MAXNC &gt;</title>
<polygon fill="white" stroke="none" points="-4,4 -4,-214 149.5,-214 149.5,4 -4,4"/>
<!-- Node1 -->
<g id="node1" class="node"><title>Node1</title>
<polygon fill="#bfbfbf" stroke="black" points="11,-0.5 11,-30.5 124,-30.5 124,-0.5 11,-0.5"/>
<text text-anchor="start" x="19" y="-18.5" font-family="Helvetica,sans-Serif" font-size="10.00">IVMultiToggleControl</text>
<text text-anchor="middle" x="67.5" y="-7.5" font-family="Helvetica,sans-Serif" font-size="10.00">&lt; MAXNC &gt;</text>
</g>
<!-- Node2 -->
<g id="node2" class="node"><title>Node2</title>
<g id="a_node2"><a xlink:href="class_i_v_multi_slider_control.html" target="_top" xlink:title="A vectorial multi&#45;slider control. ">
<polygon fill="white" stroke="black" points="12.5,-67.5 12.5,-97.5 122.5,-97.5 122.5,-67.5 12.5,-67.5"/>
<text text-anchor="start" x="20.5" y="-85.5" font-family="Helvetica,sans-Serif" font-size="10.00">IVMultiSliderControl</text>
<text text-anchor="middle" x="67.5" y="-74.5" font-family="Helvetica,sans-Serif" font-size="10.00">&lt; MAXNC &gt;</text>
</a>
</g>
</g>
<!-- Node2&#45;&gt;Node1 -->
<g id="edge1" class="edge"><title>Node2&#45;&gt;Node1</title>
<path fill="none" stroke="midnightblue" d="M67.5,-57.1081C67.5,-48.1539 67.5,-38.3227 67.5,-30.5765"/>
<polygon fill="midnightblue" stroke="midnightblue" points="64.0001,-57.3959 67.5,-67.396 71.0001,-57.396 64.0001,-57.3959"/>
</g>
<!-- Node3 -->
<g id="node3" class="node"><title>Node3</title>
<g id="a_node3"><a xlink:href="class_i_v_track_control_base.html" target="_top" xlink:title="A base class for mult&#45;strip/track controls, such as multi&#45;sliders, meters Track refers to the channel...">
<polygon fill="white" stroke="black" points="13.5,-134.5 13.5,-153.5 121.5,-153.5 121.5,-134.5 13.5,-134.5"/>
<text text-anchor="middle" x="67.5" y="-141.5" font-family="Helvetica,sans-Serif" font-size="10.00">IVTrackControlBase</text>
</a>
</g>
</g>
<!-- Node3&#45;&gt;Node2 -->
<g id="edge2" class="edge"><title>Node3&#45;&gt;Node2</title>
<path fill="none" stroke="midnightblue" d="M67.5,-124.235C67.5,-115.586 67.5,-105.497 67.5,-97.523"/>
<polygon fill="midnightblue" stroke="midnightblue" points="64.0001,-124.475 67.5,-134.475 71.0001,-124.475 64.0001,-124.475"/>
</g>
<!-- Node4 -->
<g id="node4" class="node"><title>Node4</title>
<g id="a_node4"><a xlink:href="class_i_control.html" target="_top" xlink:title="The lowest level base class of an IGraphics control. ">
<polygon fill="white" stroke="black" points="0,-190.5 0,-209.5 53,-209.5 53,-190.5 0,-190.5"/>
<text text-anchor="middle" x="26.5" y="-197.5" font-family="Helvetica,sans-Serif" font-size="10.00">IControl</text>
</a>
</g>
</g>
<!-- Node4&#45;&gt;Node3 -->
<g id="edge3" class="edge"><title>Node4&#45;&gt;Node3</title>
<path fill="none" stroke="midnightblue" d="M39.5172,-181.855C46.6167,-172.505 55.104,-161.327 60.8557,-153.751"/>
<polygon fill="midnightblue" stroke="midnightblue" points="36.5299,-180.002 33.2703,-190.083 42.105,-184.235 36.5299,-180.002"/>
</g>
<!-- Node5 -->
<g id="node5" class="node"><title>Node5</title>
<g id="a_node5"><a xlink:href="class_i_vector_base.html" target="_top" xlink:title="A base interface to be combined with IControl for vectorial controls &quot;IVControls&quot;, in order for them to share a common style If you need more flexibility, you&#39;re on your own! ">
<polygon fill="white" stroke="black" points="71.5,-190.5 71.5,-209.5 145.5,-209.5 145.5,-190.5 71.5,-190.5"/>
<text text-anchor="middle" x="108.5" y="-197.5" font-family="Helvetica,sans-Serif" font-size="10.00">IVectorBase</text>
</a>
</g>
</g>
<!-- Node5&#45;&gt;Node3 -->
<g id="edge4" class="edge"><title>Node5&#45;&gt;Node3</title>
<path fill="none" stroke="midnightblue" d="M95.4828,-181.855C88.3833,-172.505 79.896,-161.327 74.1443,-153.751"/>
<polygon fill="midnightblue" stroke="midnightblue" points="92.895,-184.235 101.73,-190.083 98.4701,-180.002 92.895,-184.235"/>
</g>
</g>
</svg>
