<?xml version="1.0" encoding="UTF-8" standalone="no"?>
<!DOCTYPE svg PUBLIC "-//W3C//DTD SVG 1.1//EN"
 "http://www.w3.org/Graphics/SVG/1.1/DTD/svg11.dtd">
<!-- Generated by graphviz version 2.38.0 (20140413.2041)
 -->
<!-- Title: ISliderControlBase Pages: 1 -->
<svg width="420pt" height="140pt"
 viewBox="0.00 0.00 419.50 140.00" xmlns="http://www.w3.org/2000/svg" xmlns:xlink="http://www.w3.org/1999/xlink">
<g id="graph0" class="graph" transform="scale(1 1) rotate(0) translate(4 136)">
<title>ISliderControlBase</title>
<polygon fill="white" stroke="none" points="-4,4 -4,-136 415.5,-136 415.5,4 -4,4"/>
<!-- Node1 -->
<g id="node1" class="node"><title>Node1</title>
<polygon fill="#bfbfbf" stroke="black" points="159.5,-56.5 159.5,-75.5 263.5,-75.5 263.5,-56.5 159.5,-56.5"/>
<text text-anchor="middle" x="211.5" y="-63.5" font-family="Helvetica,sans-Serif" font-size="10.00">ISliderControlBase</text>
</g>
<!-- Node3 -->
<g id="node3" class="node"><title>Node3</title>
<g id="a_node3"><a xlink:href="class_i_b_slider_control.html" target="_top" xlink:title="A bitmap slider/fader control. ">
<polygon fill="white" stroke="black" points="0,-0.5 0,-19.5 87,-19.5 87,-0.5 0,-0.5"/>
<text text-anchor="middle" x="43.5" y="-7.5" font-family="Helvetica,sans-Serif" font-size="10.00">IBSliderControl</text>
</a>
</g>
</g>
<!-- Node1&#45;&gt;Node3 -->
<g id="edge2" class="edge"><title>Node1&#45;&gt;Node3</title>
<path fill="none" stroke="midnightblue" d="M175.114,-53.3044C143.458,-43.1294 98.332,-28.6246 69.9956,-19.5164"/>
<polygon fill="midnightblue" stroke="midnightblue" points="174.289,-56.7155 184.88,-56.4435 176.431,-50.0513 174.289,-56.7155"/>
</g>
<!-- Node4 -->
<g id="node4" class="node"><title>Node4</title>
<g id="a_node4"><a xlink:href="class_i_s_v_g_slider_control.html" target="_top" xlink:title="A Slider control with and SVG for track and handle. ">
<polygon fill="white" stroke="black" points="105,-0.5 105,-19.5 206,-19.5 206,-0.5 105,-0.5"/>
<text text-anchor="middle" x="155.5" y="-7.5" font-family="Helvetica,sans-Serif" font-size="10.00">ISVGSliderControl</text>
</a>
</g>
</g>
<!-- Node1&#45;&gt;Node4 -->
<g id="edge3" class="edge"><title>Node1&#45;&gt;Node4</title>
<path fill="none" stroke="midnightblue" d="M195.17,-49.2533C185.235,-39.6731 172.912,-27.7906 164.661,-19.8339"/>
<polygon fill="midnightblue" stroke="midnightblue" points="192.875,-51.902 202.503,-56.324 197.734,-46.8631 192.875,-51.902"/>
</g>
<!-- Node5 -->
<g id="node5" class="node"><title>Node5</title>
<g id="a_node5"><a xlink:href="class_i_v_slider_control.html" target="_top" xlink:title="A vector slider control. ">
<polygon fill="white" stroke="black" points="224,-0.5 224,-19.5 311,-19.5 311,-0.5 224,-0.5"/>
<text text-anchor="middle" x="267.5" y="-7.5" font-family="Helvetica,sans-Serif" font-size="10.00">IVSliderControl</text>
</a>
</g>
</g>
<!-- Node1&#45;&gt;Node5 -->
<g id="edge4" class="edge"><title>Node1&#45;&gt;Node5</title>
<path fill="none" stroke="midnightblue" d="M227.83,-49.2533C237.765,-39.6731 250.088,-27.7906 258.339,-19.8339"/>
<polygon fill="midnightblue" stroke="midnightblue" points="225.266,-46.8631 220.497,-56.324 230.125,-51.902 225.266,-46.8631"/>
</g>
<!-- Node6 -->
<g id="node6" class="node"><title>Node6</title>
<g id="a_node6"><a xlink:href="class_i_wheel_control.html" target="_top" xlink:title="Vectorial &quot;wheel&quot; control for pitchbender/modwheel. ">
<polygon fill="white" stroke="black" points="329.5,-0.5 329.5,-19.5 411.5,-19.5 411.5,-0.5 329.5,-0.5"/>
<text text-anchor="middle" x="370.5" y="-7.5" font-family="Helvetica,sans-Serif" font-size="10.00">IWheelControl</text>
</a>
</g>
</g>
<!-- Node1&#45;&gt;Node6 -->
<g id="edge5" class="edge"><title>Node1&#45;&gt;Node6</title>
<path fill="none" stroke="midnightblue" d="M246.327,-53.172C276.266,-43.0039 318.721,-28.5852 345.424,-19.5164"/>
<polygon fill="midnightblue" stroke="midnightblue" points="245.037,-49.9136 236.694,-56.4435 247.288,-56.5417 245.037,-49.9136"/>
</g>
<!-- Node2 -->
<g id="node2" class="node"><title>Node2</title>
<g id="a_node2"><a xlink:href="class_i_control.html" target="_top" xlink:title="The lowest level base class of an IGraphics control. ">
<polygon fill="white" stroke="black" points="185,-112.5 185,-131.5 238,-131.5 238,-112.5 185,-112.5"/>
<text text-anchor="middle" x="211.5" y="-119.5" font-family="Helvetica,sans-Serif" font-size="10.00">IControl</text>
</a>
</g>
</g>
<!-- Node2&#45;&gt;Node1 -->
<g id="edge1" class="edge"><title>Node2&#45;&gt;Node1</title>
<path fill="none" stroke="midnightblue" d="M211.5,-101.805C211.5,-92.9102 211.5,-82.7798 211.5,-75.7511"/>
<polygon fill="midnightblue" stroke="midnightblue" points="208,-102.083 211.5,-112.083 215,-102.083 208,-102.083"/>
</g>
</g>
</svg>
