<?xml version="1.0" encoding="UTF-8" standalone="no"?>
<!DOCTYPE svg PUBLIC "-//W3C//DTD SVG 1.1//EN"
 "http://www.w3.org/Graphics/SVG/1.1/DTD/svg11.dtd">
<!-- Generated by graphviz version 2.38.0 (20140413.2041)
 -->
<!-- Title: Graphical Class Hierarchy Pages: 1 -->
<svg width="756pt" height="636pt"
 viewBox="0.00 0.00 756.00 636.00" xmlns="http://www.w3.org/2000/svg" xmlns:xlink="http://www.w3.org/1999/xlink">
<g id="graph0" class="graph" transform="scale(1 1) rotate(0) translate(4 632)">
<title>Graphical Class Hierarchy</title>
<polygon fill="white" stroke="none" points="-4,4 -4,-632 752,-632 752,4 -4,4"/>
<!-- Node1 -->
<g id="node1" class="node"><title>Node1</title>
<polygon fill="white" stroke="#bfbfbf" points="304,-608.5 304,-627.5 430,-627.5 430,-608.5 304,-608.5"/>
<text text-anchor="middle" x="367" y="-615.5" font-family="Helvetica,sans-Serif" font-size="10.00">AAX_CIPlugParameters</text>
</g>
<!-- Node2 -->
<g id="node2" class="node"><title>Node2</title>
<g id="a_node2"><a xlink:href="class_i_plug_a_a_x.html" target="_top" xlink:title="AAX API base class for an IPlug plug&#45;in. ">
<polygon fill="white" stroke="black" points="504,-608.5 504,-627.5 563,-627.5 563,-608.5 504,-608.5"/>
<text text-anchor="middle" x="533.5" y="-615.5" font-family="Helvetica,sans-Serif" font-size="10.00">IPlugAAX</text>
</a>
</g>
</g>
<!-- Node1&#45;&gt;Node2 -->
<g id="edge1" class="edge"><title>Node1&#45;&gt;Node2</title>
<path fill="none" stroke="midnightblue" d="M440.387,-618C462.783,-618 486.169,-618 503.773,-618"/>
<polygon fill="midnightblue" stroke="midnightblue" points="440.19,-614.5 430.19,-618 440.19,-621.5 440.19,-614.5"/>
</g>
<!-- Node3 -->
<g id="node3" class="node"><title>Node3</title>
<polygon fill="white" stroke="#bfbfbf" points="498,-570.5 498,-589.5 569,-589.5 569,-570.5 498,-570.5"/>
<text text-anchor="middle" x="533.5" y="-577.5" font-family="Helvetica,sans-Serif" font-size="10.00">AudioEffect</text>
</g>
<!-- Node4 -->
<g id="node4" class="node"><title>Node4</title>
<g id="a_node4"><a xlink:href="class_i_plug_v_s_t3_processor.html" target="_top" xlink:title="VST3 Processor API&#45;base class for a distributed IPlug VST3 plug&#45;in. ">
<polygon fill="white" stroke="black" points="637,-532.5 637,-551.5 748,-551.5 748,-532.5 637,-532.5"/>
<text text-anchor="middle" x="692.5" y="-539.5" font-family="Helvetica,sans-Serif" font-size="10.00">IPlugVST3Processor</text>
</a>
</g>
</g>
<!-- Node3&#45;&gt;Node4 -->
<g id="edge2" class="edge"><title>Node3&#45;&gt;Node4</title>
<path fill="none" stroke="midnightblue" d="M579.192,-569.183C602.156,-563.625 629.893,-556.911 652.056,-551.547"/>
<polygon fill="midnightblue" stroke="midnightblue" points="578.239,-565.812 569.343,-571.567 579.886,-572.616 578.239,-565.812"/>
</g>
<!-- Node5 -->
<g id="node5" class="node"><title>Node5</title>
<polygon fill="white" stroke="#bfbfbf" points="484.5,-266.5 484.5,-285.5 582.5,-285.5 582.5,-266.5 484.5,-266.5"/>
<text text-anchor="middle" x="533.5" y="-273.5" font-family="Helvetica,sans-Serif" font-size="10.00">EditControllerEx1</text>
</g>
<!-- Node6 -->
<g id="node6" class="node"><title>Node6</title>
<g id="a_node6"><a xlink:href="class_i_plug_v_s_t3_controller.html" target="_top" xlink:title="VST3 Controller API&#45;base class for a distributed IPlug VST3 plug&#45;in. ">
<polygon fill="white" stroke="black" points="637.5,-304.5 637.5,-323.5 747.5,-323.5 747.5,-304.5 637.5,-304.5"/>
<text text-anchor="middle" x="692.5" y="-311.5" font-family="Helvetica,sans-Serif" font-size="10.00">IPlugVST3Controller</text>
</a>
</g>
</g>
<!-- Node5&#45;&gt;Node6 -->
<g id="edge3" class="edge"><title>Node5&#45;&gt;Node6</title>
<path fill="none" stroke="midnightblue" d="M583.947,-287.968C605.948,-293.293 631.494,-299.476 652.167,-304.48"/>
<polygon fill="midnightblue" stroke="midnightblue" points="584.66,-284.54 574.118,-285.589 583.014,-291.343 584.66,-284.54"/>
</g>
<!-- Node7 -->
<g id="node7" class="node"><title>Node7</title>
<polygon fill="white" stroke="#bfbfbf" points="0,-152.5 0,-171.5 143,-171.5 143,-152.5 0,-152.5"/>
<text text-anchor="middle" x="71.5" y="-159.5" font-family="Helvetica,sans-Serif" font-size="10.00">EDITOR_DELEGATE_CLASS</text>
</g>
<!-- Node8 -->
<g id="node8" class="node"><title>Node8</title>
<g id="a_node8"><a xlink:href="class_i_plugin_base.html" target="_top" xlink:title="Base class that contains plug&#45;in info and state manipulation methods. ">
<polygon fill="white" stroke="black" points="188,-171.5 188,-190.5 259,-190.5 259,-171.5 188,-171.5"/>
<text text-anchor="middle" x="223.5" y="-178.5" font-family="Helvetica,sans-Serif" font-size="10.00">IPluginBase</text>
</a>
</g>
</g>
<!-- Node7&#45;&gt;Node8 -->
<g id="edge4" class="edge"><title>Node7&#45;&gt;Node8</title>
<path fill="none" stroke="midnightblue" d="M153.289,-172.233C165.385,-173.765 177.28,-175.272 187.704,-176.593"/>
<polygon fill="midnightblue" stroke="midnightblue" points="153.468,-168.728 143.108,-170.944 152.589,-175.673 153.468,-168.728"/>
</g>
<!-- Node18 -->
<g id="node18" class="node"><title>Node18</title>
<g id="a_node18"><a xlink:href="class_reaper_ext_base.html" target="_top" xlink:title="Reaper extension base class interface. ">
<polygon fill="white" stroke="black" points="179,-133.5 179,-152.5 268,-152.5 268,-133.5 179,-133.5"/>
<text text-anchor="middle" x="223.5" y="-140.5" font-family="Helvetica,sans-Serif" font-size="10.00">ReaperExtBase</text>
</a>
</g>
</g>
<!-- Node7&#45;&gt;Node18 -->
<g id="edge17" class="edge"><title>Node7&#45;&gt;Node18</title>
<path fill="none" stroke="midnightblue" d="M153.089,-151.792C161.915,-150.674 170.636,-149.569 178.761,-148.54"/>
<polygon fill="midnightblue" stroke="midnightblue" points="152.589,-148.327 143.108,-153.056 153.468,-155.272 152.589,-148.327"/>
</g>
<!-- Node9 -->
<g id="node9" class="node"><title>Node9</title>
<g id="a_node9"><a xlink:href="class_i_plug_a_p_i_base.html" target="_top" xlink:title="The base class of an IPlug plug&#45;in, which interacts with the different plug&#45;in APIs. ">
<polygon fill="white" stroke="black" points="328,-171.5 328,-190.5 406,-190.5 406,-171.5 328,-171.5"/>
<text text-anchor="middle" x="367" y="-178.5" font-family="Helvetica,sans-Serif" font-size="10.00">IPlugAPIBase</text>
</a>
</g>
</g>
<!-- Node8&#45;&gt;Node9 -->
<g id="edge5" class="edge"><title>Node8&#45;&gt;Node9</title>
<path fill="none" stroke="midnightblue" d="M269.232,-181C288.044,-181 309.708,-181 327.762,-181"/>
<polygon fill="midnightblue" stroke="midnightblue" points="269.115,-177.5 259.115,-181 269.115,-184.5 269.115,-177.5"/>
</g>
<!-- Node9&#45;&gt;Node2 -->
<g id="edge6" class="edge"><title>Node9&#45;&gt;Node2</title>
<path fill="none" stroke="midnightblue" d="M369.994,-200.717C377.933,-275.427 409.626,-539.852 466,-599 475.775,-609.256 490.668,-614.094 503.883,-616.33"/>
<polygon fill="midnightblue" stroke="midnightblue" points="373.475,-200.349 368.959,-190.765 366.512,-201.073 373.475,-200.349"/>
</g>
<!-- Node9&#45;&gt;Node4 -->
<g id="edge14" class="edge"><title>Node9&#45;&gt;Node4</title>
<path fill="none" stroke="midnightblue" d="M370.717,-200.769C380.277,-267.22 414.576,-480.74 466,-523 517.297,-565.156 599.14,-559.933 648.844,-551.515"/>
<polygon fill="midnightblue" stroke="midnightblue" points="374.17,-200.188 369.308,-190.775 367.239,-201.165 374.17,-200.188"/>
</g>
<!-- Node9&#45;&gt;Node6 -->
<g id="edge13" class="edge"><title>Node9&#45;&gt;Node6</title>
<path fill="none" stroke="midnightblue" d="M400.123,-194.349C419.12,-202.018 443.742,-211.571 466,-219 525.125,-238.734 544.041,-231.685 601,-257 630.694,-270.197 662.082,-291.988 678.971,-304.455"/>
<polygon fill="midnightblue" stroke="midnightblue" points="401.326,-191.06 390.744,-190.531 398.687,-197.543 401.326,-191.06"/>
</g>
<!-- Node10 -->
<g id="node10" class="node"><title>Node10</title>
<g id="a_node10"><a xlink:href="class_i_plug_a_p_p.html" target="_top" xlink:title="Standalone application base class for an IPlug plug&#45;in. ">
<polygon fill="white" stroke="black" points="504.5,-152.5 504.5,-171.5 562.5,-171.5 562.5,-152.5 504.5,-152.5"/>
<text text-anchor="middle" x="533.5" y="-159.5" font-family="Helvetica,sans-Serif" font-size="10.00">IPlugAPP</text>
</a>
</g>
</g>
<!-- Node9&#45;&gt;Node10 -->
<g id="edge7" class="edge"><title>Node9&#45;&gt;Node10</title>
<path fill="none" stroke="midnightblue" d="M416.36,-175.414C444.968,-172.11 480.205,-168.04 504.315,-165.255"/>
<polygon fill="midnightblue" stroke="midnightblue" points="415.685,-171.969 406.153,-176.593 416.489,-178.923 415.685,-171.969"/>
</g>
<!-- Node11 -->
<g id="node11" class="node"><title>Node11</title>
<g id="a_node11"><a xlink:href="class_i_plug_a_u.html" target="_top" xlink:title="AudioUnit v2 API base class for an IPlug plug&#45;in. ">
<polygon fill="white" stroke="black" points="507,-114.5 507,-133.5 560,-133.5 560,-114.5 507,-114.5"/>
<text text-anchor="middle" x="533.5" y="-121.5" font-family="Helvetica,sans-Serif" font-size="10.00">IPlugAU</text>
</a>
</g>
</g>
<!-- Node9&#45;&gt;Node11 -->
<g id="edge8" class="edge"><title>Node9&#45;&gt;Node11</title>
<path fill="none" stroke="midnightblue" d="M400.134,-167.684C419.134,-160.025 443.757,-150.472 466,-143 479.317,-138.526 494.352,-134.173 506.753,-130.765"/>
<polygon fill="midnightblue" stroke="midnightblue" points="398.7,-164.488 390.753,-171.495 401.335,-170.973 398.7,-164.488"/>
</g>
<!-- Node12 -->
<g id="node12" class="node"><title>Node12</title>
<g id="a_node12"><a xlink:href="class_i_plug_a_uv3.html" target="_top" xlink:title="AudioUnit v3 API base class for an IPlug plug&#45;in. ">
<polygon fill="white" stroke="black" points="501,-76.5 501,-95.5 566,-95.5 566,-76.5 501,-76.5"/>
<text text-anchor="middle" x="533.5" y="-83.5" font-family="Helvetica,sans-Serif" font-size="10.00">IPlugAUv3</text>
</a>
</g>
</g>
<!-- Node9&#45;&gt;Node12 -->
<g id="edge9" class="edge"><title>Node9&#45;&gt;Node12</title>
<path fill="none" stroke="midnightblue" d="M395.402,-166.299C406.578,-159.779 419.35,-151.633 430,-143 448.073,-128.351 446.11,-117.068 466,-105 476.573,-98.5847 489.404,-94.256 500.963,-91.3734"/>
<polygon fill="midnightblue" stroke="midnightblue" points="393.441,-163.388 386.471,-171.367 396.896,-169.476 393.441,-163.388"/>
</g>
<!-- Node13 -->
<g id="node13" class="node"><title>Node13</title>
<g id="a_node13"><a xlink:href="class_i_plug_v_s_t2.html" target="_top" xlink:title="VST2.4 API base class for an IPlug plug&#45;in. ">
<polygon fill="white" stroke="black" points="501.5,-38.5 501.5,-57.5 565.5,-57.5 565.5,-38.5 501.5,-38.5"/>
<text text-anchor="middle" x="533.5" y="-45.5" font-family="Helvetica,sans-Serif" font-size="10.00">IPlugVST2</text>
</a>
</g>
</g>
<!-- Node9&#45;&gt;Node13 -->
<g id="edge10" class="edge"><title>Node9&#45;&gt;Node13</title>
<path fill="none" stroke="midnightblue" d="M398.866,-166.755C409.728,-160.614 421.368,-152.614 430,-143 454.971,-115.19 437.495,-91.174 466,-67 475.89,-58.6127 489.271,-53.9206 501.437,-51.2986"/>
<polygon fill="midnightblue" stroke="midnightblue" points="397.19,-163.681 390.007,-171.47 400.479,-169.861 397.19,-163.681"/>
</g>
<!-- Node15 -->
<g id="node15" class="node"><title>Node15</title>
<g id="a_node15"><a xlink:href="class_i_plug_v_s_t3.html" target="_top" xlink:title="VST3 base class for a non&#45;distributed IPlug VST3 plug&#45;in. ">
<polygon fill="white" stroke="black" points="660.5,-399.5 660.5,-418.5 724.5,-418.5 724.5,-399.5 660.5,-399.5"/>
<text text-anchor="middle" x="692.5" y="-406.5" font-family="Helvetica,sans-Serif" font-size="10.00">IPlugVST3</text>
</a>
</g>
</g>
<!-- Node9&#45;&gt;Node15 -->
<g id="edge12" class="edge"><title>Node9&#45;&gt;Node15</title>
<path fill="none" stroke="midnightblue" d="M368.228,-200.551C370.009,-251.588 382.68,-388.902 466,-447 532.597,-493.438 636.693,-441.435 675.879,-418.633"/>
<polygon fill="midnightblue" stroke="midnightblue" points="371.726,-200.435 367.984,-190.523 364.728,-200.605 371.726,-200.435"/>
</g>
<!-- Node16 -->
<g id="node16" class="node"><title>Node16</title>
<g id="a_node16"><a xlink:href="class_i_plug_w_a_m.html" target="_top" xlink:title="WebAudioModule (WAM) API base class. ">
<polygon fill="white" stroke="black" points="502.5,-0.5 502.5,-19.5 564.5,-19.5 564.5,-0.5 502.5,-0.5"/>
<text text-anchor="middle" x="533.5" y="-7.5" font-family="Helvetica,sans-Serif" font-size="10.00">IPlugWAM</text>
</a>
</g>
</g>
<!-- Node9&#45;&gt;Node16 -->
<g id="edge15" class="edge"><title>Node9&#45;&gt;Node16</title>
<path fill="none" stroke="midnightblue" d="M400.919,-166.624C411.459,-160.638 422.363,-152.771 430,-143 462.72,-101.137 427.915,-66.049 466,-29 475.639,-19.6229 489.573,-14.814 502.198,-12.371"/>
<polygon fill="midnightblue" stroke="midnightblue" points="399.062,-163.646 391.842,-171.4 402.321,-169.841 399.062,-163.646"/>
</g>
<!-- Node17 -->
<g id="node17" class="node"><title>Node17</title>
<g id="a_node17"><a xlink:href="class_i_plug_web.html" target="_top" xlink:title="This is used for the UI &quot;editor&quot; &#45; controller side of a WAM or remote editors that communicate with d...">
<polygon fill="white" stroke="black" points="504,-190.5 504,-209.5 563,-209.5 563,-190.5 504,-190.5"/>
<text text-anchor="middle" x="533.5" y="-197.5" font-family="Helvetica,sans-Serif" font-size="10.00">IPlugWeb</text>
</a>
</g>
</g>
<!-- Node9&#45;&gt;Node17 -->
<g id="edge16" class="edge"><title>Node9&#45;&gt;Node17</title>
<path fill="none" stroke="midnightblue" d="M416.293,-186.578C444.71,-189.86 479.686,-193.9 503.799,-196.685"/>
<polygon fill="midnightblue" stroke="midnightblue" points="416.489,-183.077 406.153,-185.407 415.685,-190.031 416.489,-183.077"/>
</g>
<!-- Node14 -->
<g id="node14" class="node"><title>Node14</title>
<g id="a_node14"><a xlink:href="class_i_plug_reaper_v_s_t2.html" target="_top" xlink:title="Reaper specific VST2.4 API base class for an IPlug plug&#45;in. ">
<polygon fill="white" stroke="black" points="644,-38.5 644,-57.5 741,-57.5 741,-38.5 644,-38.5"/>
<text text-anchor="middle" x="692.5" y="-45.5" font-family="Helvetica,sans-Serif" font-size="10.00">IPlugReaperVST2</text>
</a>
</g>
</g>
<!-- Node13&#45;&gt;Node14 -->
<g id="edge11" class="edge"><title>Node13&#45;&gt;Node14</title>
<path fill="none" stroke="midnightblue" d="M575.68,-48C596.586,-48 622.094,-48 643.845,-48"/>
<polygon fill="midnightblue" stroke="midnightblue" points="575.518,-44.5001 565.518,-48 575.518,-51.5001 575.518,-44.5001"/>
</g>
<!-- Node19 -->
<g id="node19" class="node"><title>Node19</title>
<polygon fill="white" stroke="#bfbfbf" points="496.5,-380.5 496.5,-399.5 570.5,-399.5 570.5,-380.5 496.5,-380.5"/>
<text text-anchor="middle" x="533.5" y="-387.5" font-family="Helvetica,sans-Serif" font-size="10.00">IInfoListener</text>
</g>
<!-- Node19&#45;&gt;Node6 -->
<g id="edge19" class="edge"><title>Node19&#45;&gt;Node6</title>
<path fill="none" stroke="midnightblue" d="M580.735,-378.634C587.643,-376.409 594.592,-373.863 601,-371 630.668,-357.744 662.065,-335.976 678.963,-323.527"/>
<polygon fill="midnightblue" stroke="midnightblue" points="579.27,-375.42 570.71,-381.663 581.295,-382.121 579.27,-375.42"/>
</g>
<!-- Node19&#45;&gt;Node15 -->
<g id="edge18" class="edge"><title>Node19&#45;&gt;Node15</title>
<path fill="none" stroke="midnightblue" d="M580.776,-395.6C606.446,-398.707 637.679,-402.487 660.42,-405.239"/>
<polygon fill="midnightblue" stroke="midnightblue" points="580.867,-392.086 570.519,-394.359 580.026,-399.035 580.867,-392.086"/>
</g>
<!-- Node20 -->
<g id="node20" class="node"><title>Node20</title>
<polygon fill="white" stroke="#bfbfbf" points="494.5,-342.5 494.5,-361.5 572.5,-361.5 572.5,-342.5 494.5,-342.5"/>
<text text-anchor="middle" x="533.5" y="-349.5" font-family="Helvetica,sans-Serif" font-size="10.00">IMidiMapping</text>
</g>
<!-- Node20&#45;&gt;Node6 -->
<g id="edge21" class="edge"><title>Node20&#45;&gt;Node6</title>
<path fill="none" stroke="midnightblue" d="M582.463,-340.391C604.806,-334.983 631.059,-328.629 652.205,-323.511"/>
<polygon fill="midnightblue" stroke="midnightblue" points="581.401,-337.047 572.505,-342.801 583.048,-343.851 581.401,-337.047"/>
</g>
<!-- Node20&#45;&gt;Node15 -->
<g id="edge20" class="edge"><title>Node20&#45;&gt;Node15</title>
<path fill="none" stroke="midnightblue" d="M580.833,-364.469C587.638,-366.522 594.531,-368.727 601,-371 625.276,-379.531 652.4,-391.219 670.567,-399.371"/>
<polygon fill="midnightblue" stroke="midnightblue" points="581.567,-361.036 570.986,-361.578 579.595,-367.753 581.567,-361.036"/>
</g>
<!-- Node21 -->
<g id="node21" class="node"><title>Node21</title>
<g id="a_node21"><a xlink:href="class_i_plug_processor.html" target="_top" xlink:title="The base class for IPlug Audio Processing. ">
<polygon fill="white" stroke="black" points="324,-114.5 324,-133.5 410,-133.5 410,-114.5 324,-114.5"/>
<text text-anchor="middle" x="367" y="-121.5" font-family="Helvetica,sans-Serif" font-size="10.00">IPlugProcessor</text>
</a>
</g>
</g>
<!-- Node21&#45;&gt;Node2 -->
<g id="edge22" class="edge"><title>Node21&#45;&gt;Node2</title>
<path fill="none" stroke="midnightblue" d="M403.473,-138.183C413.694,-144.025 423.757,-151.854 430,-162 481.061,-244.99 404.175,-523.685 466,-599 475.142,-610.137 490.325,-615.008 503.877,-617.04"/>
<polygon fill="midnightblue" stroke="midnightblue" points="405.033,-135.049 394.544,-133.552 401.81,-141.263 405.033,-135.049"/>
</g>
<!-- Node21&#45;&gt;Node10 -->
<g id="edge23" class="edge"><title>Node21&#45;&gt;Node10</title>
<path fill="none" stroke="midnightblue" d="M419.565,-135.912C447.619,-142.392 481.233,-150.157 504.455,-155.522"/>
<polygon fill="midnightblue" stroke="midnightblue" points="420.042,-132.43 409.51,-133.589 418.466,-139.25 420.042,-132.43"/>
</g>
<!-- Node21&#45;&gt;Node11 -->
<g id="edge24" class="edge"><title>Node21&#45;&gt;Node11</title>
<path fill="none" stroke="midnightblue" d="M420.673,-124C449.425,-124 483.74,-124 506.706,-124"/>
<polygon fill="midnightblue" stroke="midnightblue" points="420.363,-120.5 410.363,-124 420.363,-127.5 420.363,-120.5"/>
</g>
<!-- Node21&#45;&gt;Node12 -->
<g id="edge25" class="edge"><title>Node21&#45;&gt;Node12</title>
<path fill="none" stroke="midnightblue" d="M419.454,-112.114C446.117,-105.955 477.828,-98.6294 500.868,-93.3071"/>
<polygon fill="midnightblue" stroke="midnightblue" points="418.466,-108.75 409.51,-114.411 420.042,-115.57 418.466,-108.75"/>
</g>
<!-- Node21&#45;&gt;Node13 -->
<g id="edge26" class="edge"><title>Node21&#45;&gt;Node13</title>
<path fill="none" stroke="midnightblue" d="M390.439,-108.777C409.778,-96.1973 438.798,-78.5827 466,-67 477.268,-62.2019 490.114,-58.211 501.492,-55.1458"/>
<polygon fill="midnightblue" stroke="midnightblue" points="388.442,-105.902 382.024,-114.332 392.298,-111.744 388.442,-105.902"/>
</g>
<!-- Node21&#45;&gt;Node16 -->
<g id="edge30" class="edge"><title>Node21&#45;&gt;Node16</title>
<path fill="none" stroke="midnightblue" d="M381.517,-106.386C398.833,-85.0133 430.839,-49.3226 466,-29 477.123,-22.5709 490.566,-18.1968 502.445,-15.2831"/>
<polygon fill="midnightblue" stroke="midnightblue" points="378.693,-104.315 375.227,-114.327 384.18,-108.662 378.693,-104.315"/>
</g>
<!-- Node22 -->
<g id="node22" class="node"><title>Node22</title>
<g id="a_node22"><a xlink:href="class_i_plug_v_s_t3_processor_base.html" target="_top" xlink:title="Shared VST3 processor code. ">
<polygon fill="white" stroke="black" points="466,-494.5 466,-513.5 601,-513.5 601,-494.5 466,-494.5"/>
<text text-anchor="middle" x="533.5" y="-501.5" font-family="Helvetica,sans-Serif" font-size="10.00">IPlugVST3ProcessorBase</text>
</a>
</g>
</g>
<!-- Node21&#45;&gt;Node22 -->
<g id="edge27" class="edge"><title>Node21&#45;&gt;Node22</title>
<path fill="none" stroke="midnightblue" d="M402.961,-138.204C413.251,-144.071 423.486,-151.91 430,-162 499.251,-269.26 405.474,-334.586 466,-447 477.318,-468.02 499.765,-484.696 515.434,-494.451"/>
<polygon fill="midnightblue" stroke="midnightblue" points="404.483,-135.051 393.995,-133.549 401.257,-141.264 404.483,-135.051"/>
</g>
<!-- Node22&#45;&gt;Node4 -->
<g id="edge29" class="edge"><title>Node22&#45;&gt;Node4</title>
<path fill="none" stroke="midnightblue" d="M583.947,-515.968C605.948,-521.293 631.494,-527.476 652.167,-532.48"/>
<polygon fill="midnightblue" stroke="midnightblue" points="584.66,-512.54 574.118,-513.589 583.014,-519.343 584.66,-512.54"/>
</g>
<!-- Node22&#45;&gt;Node15 -->
<g id="edge28" class="edge"><title>Node22&#45;&gt;Node15</title>
<path fill="none" stroke="midnightblue" d="M576.999,-490.956C585.174,-487.814 593.514,-484.146 601,-480 632.969,-462.294 665.478,-433.621 681.419,-418.708"/>
<polygon fill="midnightblue" stroke="midnightblue" points="575.738,-487.691 567.54,-494.401 578.134,-494.268 575.738,-487.691"/>
</g>
<!-- Node23 -->
<g id="node23" class="node"><title>Node23</title>
<g id="a_node23"><a xlink:href="class_i_plug_v_s_t3_controller_base.html" target="_top" xlink:title="Shared VST3 controller code. ">
<polygon fill="white" stroke="black" points="466.5,-304.5 466.5,-323.5 600.5,-323.5 600.5,-304.5 466.5,-304.5"/>
<text text-anchor="middle" x="533.5" y="-311.5" font-family="Helvetica,sans-Serif" font-size="10.00">IPlugVST3ControllerBase</text>
</a>
</g>
</g>
<!-- Node23&#45;&gt;Node6 -->
<g id="edge32" class="edge"><title>Node23&#45;&gt;Node6</title>
<path fill="none" stroke="midnightblue" d="M610.731,-314C619.717,-314 628.743,-314 637.337,-314"/>
<polygon fill="midnightblue" stroke="midnightblue" points="610.627,-310.5 600.627,-314 610.627,-317.5 610.627,-310.5"/>
</g>
<!-- Node23&#45;&gt;Node15 -->
<g id="edge31" class="edge"><title>Node23&#45;&gt;Node15</title>
<path fill="none" stroke="midnightblue" d="M587.655,-326.97C592.269,-328.755 596.782,-330.759 601,-333 634.881,-351.003 667.553,-383.257 682.705,-399.336"/>
<polygon fill="midnightblue" stroke="midnightblue" points="588.697,-323.626 578.103,-323.604 586.371,-330.228 588.697,-323.626"/>
</g>
<!-- Node24 -->
<g id="node24" class="node"><title>Node24</title>
<polygon fill="white" stroke="#bfbfbf" points="335,-0.5 335,-19.5 399,-19.5 399,-0.5 335,-0.5"/>
<text text-anchor="middle" x="367" y="-7.5" font-family="Helvetica,sans-Serif" font-size="10.00">Processor</text>
</g>
<!-- Node24&#45;&gt;Node16 -->
<g id="edge33" class="edge"><title>Node24&#45;&gt;Node16</title>
<path fill="none" stroke="midnightblue" d="M409.539,-10C438.46,-10 476.362,-10 502.398,-10"/>
<polygon fill="midnightblue" stroke="midnightblue" points="409.328,-6.5001 399.328,-10 409.328,-13.5001 409.328,-6.5001"/>
</g>
<!-- Node25 -->
<g id="node25" class="node"><title>Node25</title>
<polygon fill="white" stroke="#bfbfbf" points="469,-418.5 469,-437.5 598,-437.5 598,-418.5 469,-418.5"/>
<text text-anchor="middle" x="533.5" y="-425.5" font-family="Helvetica,sans-Serif" font-size="10.00">SingleComponentEffect</text>
</g>
<!-- Node25&#45;&gt;Node15 -->
<g id="edge34" class="edge"><title>Node25&#45;&gt;Node15</title>
<path fill="none" stroke="midnightblue" d="M608.471,-419.048C626.781,-416.832 645.421,-414.576 660.388,-412.765"/>
<polygon fill="midnightblue" stroke="midnightblue" points="607.865,-415.596 598.358,-420.272 608.706,-422.545 607.865,-415.596"/>
</g>
</g>
</svg>
